HIERARCHY
ROOT SpineBase
{
  OFFSET 0.000000 0.000000 0.000000
  CHANNELS 6 Xposition Yposition Zposition Zrotation Xrotation Yrotation
  JOINT SpineMid
  {
    OFFSET 0.000000 29.388216 0.000000
    CHANNELS 3 Zrotation Xrotation Yrotation
    JOINT SpineShoulder
    {
      OFFSET 0.167833 21.864328 -0.638326
      CHANNELS 3 Zrotation Xrotation Yrotation
      JOINT Neck
      {
        OFFSET 0.107263 7.247375 -0.521976
        CHANNELS 3 Zrotation Xrotation Yrotation
        JOINT Head
        {
          OFFSET 3.852418 13.255448 1.439507
          CHANNELS 3 Zrotation Xrotation Yrotation
          End Site
          {
            OFFSET 0 0 0
          }
        }
      }
      JOINT ShoulderLeft
      {
        OFFSET -7.748983 -3.694067 -13.704748
        CHANNELS 3 Zrotation Xrotation Yrotation
        JOINT ElbowLeft
        {
          OFFSET -0.912572 -25.201037 -4.960212
          CHANNELS 3 Zrotation Xrotation Yrotation
          JOINT WristLeft
          {
            OFFSET 7.446623 -22.577238 -1.190476
            CHANNELS 3 Zrotation Xrotation Yrotation
            JOINT HandLeft
            {
              OFFSET 0.105243 -4.428519 2.891682
              CHANNELS 3 Zrotation Xrotation Yrotation
              JOINT HandTipLeft
              {
                OFFSET 1.618439 -6.600945 1.482834
                CHANNELS 3 Zrotation Xrotation Yrotation
                End Site
                {
                  OFFSET 0 0 0
                }
              }
              JOINT ThumbLeft
              {
                OFFSET 5.275605 2.314091 3.428245
                CHANNELS 3 Zrotation Xrotation Yrotation
                End Site
                {
                  OFFSET 0 0 0
                }
              }
            }
          }
        }
      }
      JOINT ShoulderRight
      {
        OFFSET 9.747657 -3.293706 12.124629
        CHANNELS 3 Zrotation Xrotation Yrotation
        JOINT ElbowRight
        {
          OFFSET 4.182568 -30.067160 0.448418
          CHANNELS 3 Zrotation Xrotation Yrotation
          JOINT WristRight
          {
            OFFSET -1.297531 -22.223617 4.685683
            CHANNELS 3 Zrotation Xrotation Yrotation
            JOINT HandRight
            {
              OFFSET -0.602293 -2.365846 -3.632353
              CHANNELS 3 Zrotation Xrotation Yrotation
              JOINT HandTipRight
              {
                OFFSET -0.283518 -2.284166 -0.799567
                CHANNELS 3 Zrotation Xrotation Yrotation
                End Site
                {
                  OFFSET 0 0 0
                }
              }
              JOINT ThumbRight
              {
                OFFSET 0.547241 0.490904 -1.513513
                CHANNELS 3 Zrotation Xrotation Yrotation
                End Site
                {
                  OFFSET 0 0 0
                }
              }
            }
          }
        }
      }
    }
  }
  JOINT HipLeft
  {
    OFFSET -3.695340 2.114493 -8.645088
    CHANNELS 3 Zrotation Xrotation Yrotation
    JOINT KneeLeft
    {
      OFFSET -6.306395 -28.701622 0.163348
      CHANNELS 3 Zrotation Xrotation Yrotation
      JOINT AnkleLeft
      {
        OFFSET -7.192432 -33.748926 3.748541
        CHANNELS 3 Zrotation Xrotation Yrotation
        JOINT FootLeft
        {
          OFFSET 3.879536 -7.786581 -1.060385
          CHANNELS 3 Zrotation Xrotation Yrotation
          End Site
          {
            OFFSET 0 0 0
          }
        }
      }
    }
  }
  JOINT HipRight
  {
    OFFSET 4.649015 -0.227600 1.769186
    CHANNELS 3 Zrotation Xrotation Yrotation
    JOINT KneeRight
    {
      OFFSET -2.310545 -29.207505 7.781112
      CHANNELS 3 Zrotation Xrotation Yrotation
      JOINT AnkleRight
      {
        OFFSET -10.530726 -29.259388 -0.530783
        CHANNELS 3 Zrotation Xrotation Yrotation
        JOINT FootRight
        {
          OFFSET 3.083071 -8.285545 -2.661043
          CHANNELS 3 Zrotation Xrotation Yrotation
          End Site
          {
            OFFSET 0 0 0
          }
        }
      }
    }
  }
}
MOTION
Frames: 16
Frame Time: 0.033333
-42.384321 68.744804 330.685136 -0.000000 0.000000 -51.296822 -0.000000 0.000000 51.296822 -0.000000 0.000000 0.000000 -0.000000 0.000000 0.000000 0.000000 0.000000 0.000000 -0.000000 0.000000 0.000000 -0.000000 0.000000 0.000000 -0.000000 0.000000 0.000000 -0.000000 0.000000 0.000000 0.000000 0.000000 0.000000 0.000000 0.000000 0.000000 -0.000000 0.000000 0.000000 -0.000000 0.000000 0.000000 -0.000000 0.000000 0.000000 -0.000000 0.000000 0.000000 0.000000 0.000000 0.000000 0.000000 0.000000 0.000000 -0.000000 0.000000 51.296822 -0.000000 0.000000 0.000000 -0.000000 0.000000 0.000000 0.000000 0.000000 0.000000 -0.000000 0.000000 51.296822 -0.000000 0.000000 0.000000 -0.000000 0.000000 0.000000 0.000000 0.000000 0.000000
-42.351004 68.775267 330.474833 -0.015863 0.337524 -51.282787 0.273274 -0.198736 51.283307 -0.000000 0.000000 0.000000 -0.000000 0.000000 0.000000 0.000000 0.000000 0.000000 -0.000000 0.000000 0.000000 -0.762634 0.317490 0.147346 0.502075 2.648291 -0.243476 -0.661339 -1.869598 0.133629 0.000000 0.000000 0.000000 0.000000 0.000000 0.000000 -0.000000 0.000000 0.000000 -0.000000 0.000000 0.000000 0.709528 -2.252542 -0.518361 1.380002 7.874527 -1.068057 0.000000 0.000000 0.000000 0.000000 0.000000 0.000000 0.273274 -0.198736 51.283307 -0.000000 0.000000 0.000000 -0.156391 0.765424 0.403613 0.000000 0.000000 0.000000 0.273274 -0.198736 51.283307 -0.000000 0.000000 0.000000 -0.834210 0.836532 0.585505 0.000000 0.000000 0.000000
-42.330738 68.799578 330.290949 -0.030084 0.619494 -51.208366 0.501707 -0.364654 51.210125 -0.000000 0.000000 0.000000 -0.000000 0.000000 0.000000 0.000000 0.000000 0.000000 -1.133464 0.301519 0.214978 -0.309961 0.276005 0.057990 1.075066 5.487406 -0.360998 -1.213254 -3.751755 0.207528 0.000000 0.000000 0.000000 0.000000 0.000000 0.000000 -0.000000 0.000000 0.000000 -0.000000 0.000000 0.000000 1.203212 -4.282203 -0.757224 2.737828 14.099689 -2.364631 0.000000 0.000000 0.000000 0.000000 0.000000 0.000000 0.501707 -0.364654 51.210125 -0.000000 0.000000 0.000000 -0.195033 1.307524 0.679778 0.000000 0.000000 0.000000 1.275756 -0.635157 51.350798 -0.272222 0.773419 -0.132082 -1.590953 1.581396 1.122219 0.000000 0.000000 0.000000
-42.323524 68.817737 330.133482 -0.042655 0.845717 -51.073346 0.684745 -0.498188 51.076638 -0.000000 0.000000 0.000000 -0.000000 0.000000 0.000000 0.000000 0.000000 0.000000 -1.573272 0.403299 0.300255 -0.471601 0.377317 0.077015 1.739763 8.473981 -0.346099 -1.612881 -5.608485 0.246720 0.000000 0.000000 0.000000 0.000000 0.000000 0.000000 -0.000000 0.000000 0.000000 -0.000000 0.000000 0.000000 1.520162 -6.185323 -0.739609 4.012672 18.638616 -3.705620 0.000000 0.000000 0.000000 0.000000 0.000000 0.000000 0.684745 -0.498188 51.076638 -0.000000 0.000000 0.000000 -0.113825 1.631281 0.828724 0.000000 0.000000 0.000000 1.696159 -0.894690 51.257591 -0.082288 0.281882 0.098796 -2.499554 3.002498 1.371219 0.000000 0.000000 0.000000
-42.329361 68.829744 330.002435 -0.053569 1.016047 -50.877616 0.822082 -0.599522 50.882392 -0.000000 0.000000 0.000000 -0.000000 0.000000 0.000000 0.000000 0.000000 0.000000 -1.926765 0.472491 0.369582 -0.641369 0.455806 0.089496 2.516060 11.553278 -0.195362 -1.812398 -7.399902 0.287704 0.000000 0.000000 0.000000 0.000000 0.000000 0.000000 -0.000000 0.000000 0.000000 -0.000000 0.000000 0.000000 1.679923 -8.053323 -0.458877 5.133710 21.542196 -4.962458 0.000000 0.000000 0.000000 0.000000 0.000000 0.000000 1.565837 -0.966278 51.071288 -0.182076 0.808967 -0.177447 0.088650 1.739478 0.851211 0.000000 0.000000 0.000000 1.964493 -1.114796 51.080299 -0.001860 0.285649 0.146213 -3.164510 3.749072 1.758744 0.000000 0.000000 0.000000
-42.348249 68.835599 329.897805 -0.062821 1.130382 -50.621172 0.913649 -0.668574 50.627122 -0.000000 0.000000 0.000000 -0.000000 0.000000 0.000000 0.000000 0.000000 0.000000 -2.193051 0.509189 0.422345 -0.821453 0.512339 0.095526 3.422290 14.660772 0.091081 -1.763372 -9.087983 0.375253 0.000000 0.000000 0.000000 0.000000 0.000000 0.000000 -0.000000 0.000000 0.000000 -0.000000 0.000000 0.000000 1.686259 -9.986918 0.124236 6.041610 22.892226 -6.068346 0.000000 0.000000 0.000000 0.000000 0.000000 0.000000 1.772915 -1.040742 50.839310 -0.254121 0.901170 -0.197372 0.413182 1.632573 0.748495 0.000000 0.000000 0.000000 2.077983 -1.293760 50.817091 0.135265 0.235730 0.202768 -3.745672 4.374981 2.103168 0.000000 0.000000 0.000000
-42.385124 68.832437 329.731629 -0.056802 1.313500 -50.097345 1.044141 -0.798968 50.105276 -0.000000 0.000000 0.000000 -0.000000 0.000000 0.000000 0.000000 0.000000 0.000000 -2.416339 0.521756 0.467000 -1.264879 0.627061 0.134260 4.912312 21.274489 0.601223 2.565159 -14.120653 2.567625 0.000000 0.000000 0.000000 0.000000 0.000000 0.000000 -0.000000 0.000000 0.000000 -0.000000 0.000000 0.000000 2.033055 -12.694493 0.423745 6.315164 18.927154 -5.761421 0.000000 0.000000 0.000000 0.000000 0.000000 0.000000 2.086611 -1.181097 50.355159 -0.370995 1.046335 -0.228483 1.178335 1.115338 0.381313 0.000000 0.000000 0.000000 2.233320 -1.696487 50.268027 0.401989 0.309673 0.272413 -5.096812 5.792290 3.079499 0.000000 0.000000 0.000000
-42.436493 68.822480 329.675232 -0.056606 1.305884 -49.684480 1.032422 -0.801693 49.692348 -0.000000 0.000000 0.000000 0.170997 -0.843282 0.228056 0.000000 0.000000 0.000000 -2.454230 0.490386 0.475105 -2.414647 0.814244 0.250068 7.043213 25.032800 1.038947 5.278833 -15.850274 4.465233 0.000000 0.000000 0.000000 0.000000 0.000000 0.000000 -0.000000 0.000000 0.000000 -0.000000 0.000000 0.000000 2.203935 -16.255035 1.413572 5.287661 15.622597 -5.190379 0.000000 0.000000 0.000000 0.000000 0.000000 0.000000 2.141829 -1.119256 49.944874 -1.203529 0.698048 -0.223273 3.016490 0.033110 -0.473951 0.000000 0.000000 0.000000 2.028711 -1.856611 49.786552 0.739546 0.188769 0.359724 -5.795669 6.420763 3.523096 0.000000 0.000000 0.000000
-42.476206 68.815422 329.742677 -0.024582 1.093755 -49.388757 0.846360 -0.693263 49.394112 -0.000000 0.000000 0.000000 0.456668 -1.092151 0.272777 0.000000 0.000000 0.000000 -2.114694 0.406755 0.408491 -3.414179 0.856142 0.340005 7.852862 26.222544 1.104063 -0.551954 -17.214023 0.996142 0.000000 0.000000 0.000000 0.000000 0.000000 0.000000 -0.000000 0.000000 0.000000 -0.000000 0.000000 0.000000 -1.457702 -16.677677 8.082874 10.752765 6.692032 -12.134500 0.000000 0.000000 0.000000 0.000000 0.000000 0.000000 1.781016 -1.256190 49.647516 -0.176280 1.076633 -0.235847 3.415116 -1.659113 -1.226584 0.000000 0.000000 0.000000 1.346966 -1.869149 49.345005 1.240400 -0.051865 0.468244 -5.384954 6.192648 3.267977 0.000000 0.000000 0.000000
-42.521832 68.824333 329.848609 0.006450 0.813594 -49.437417 0.613907 -0.533952 49.440231 -0.000000 0.000000 0.000000 0.805361 -1.407014 0.332489 0.000000 0.000000 0.000000 -1.851970 0.320576 0.357712 -2.000428 0.275486 0.051194 4.436018 23.807690 0.487697 -12.556978 -16.696705 -6.163314 0.000000 0.000000 0.000000 0.000000 0.000000 0.000000 -0.000000 0.000000 0.000000 -0.000000 0.000000 0.000000 2.170538 -29.385786 8.230445 7.529532 24.331016 -12.114636 0.000000 0.000000 0.000000 0.000000 0.000000 0.000000 1.399752 -1.321570 49.696100 0.092281 1.108696 -0.244037 3.621487 -1.556012 -1.202688 0.000000 0.000000 0.000000 0.630778 -1.633889 49.278802 1.597025 -0.433748 0.561303 -3.047044 1.460296 0.494998 0.000000 0.000000 0.000000
-42.612786 68.840132 330.062596 -0.061034 0.435795 -49.311701 0.370242 -0.237832 49.312701 -0.000000 0.000000 0.000000 1.042521 -1.569812 0.358808 0.000000 0.000000 0.000000 -2.165604 0.215628 0.422117 2.163974 -0.231419 -0.413671 -0.454432 14.823410 0.127479 -13.447000 -6.179934 -3.699837 0.000000 0.000000 0.000000 0.000000 0.000000 0.000000 -0.000000 0.000000 0.000000 -0.000000 0.000000 0.000000 3.399728 -39.435308 14.515355 15.394244 37.536944 -23.148548 0.000000 0.000000 0.000000 0.000000 0.000000 0.000000 1.186908 -0.744943 49.529303 -0.144346 0.950378 -0.208401 4.120265 -2.098458 -1.508134 0.000000 0.000000 0.000000 0.370242 -0.237832 49.312701 0.460832 -0.999127 0.355833 -2.036068 0.476795 -0.017372 0.000000 0.000000 0.000000
-42.876505 69.070374 329.833261 -0.292118 0.556042 -49.509551 0.612557 -0.138881 49.511711 -0.000000 0.000000 0.000000 1.254681 -1.536177 0.328569 0.000000 0.000000 0.000000 -2.479812 0.760475 0.476091 8.249611 -3.626736 -1.435229 -3.435423 11.092206 3.039478 -9.402471 -0.367181 -2.339178 0.000000 0.000000 0.000000 0.000000 0.000000 0.000000 1.093161 0.888477 0.131265 -1.719136 -4.148973 -0.114837 -1.699159 -31.418250 22.564909 30.031511 30.343698 -38.495733 0.000000 0.000000 0.000000 0.000000 0.000000 0.000000 2.246243 -0.166072 49.799432 -1.033933 1.265230 -0.271956 -0.054940 -1.303503 -0.643765 0.000000 0.000000 0.000000 0.612557 -0.138881 49.511711 0.624739 -1.537013 0.551477 -5.564486 4.085967 2.261051 0.000000 0.000000 0.000000
-43.033029 68.913755 330.212008 -0.790469 0.121354 -48.721471 -0.243823 0.236037 48.699036 -0.341040 -0.350035 -0.060589 2.065241 -1.287168 0.335364 0.000000 0.000000 0.000000 -2.575031 0.524913 0.798060 17.464026 -4.924456 -2.027738 -10.706701 1.517946 4.301147 -6.889426 2.928076 -2.491868 0.000000 0.000000 0.000000 0.000000 0.000000 0.000000 1.802403 0.499197 0.175294 -1.193981 -3.907686 -0.030945 -3.092477 -35.160507 30.188942 23.902489 27.717119 -37.593299 0.000000 0.000000 0.000000 0.000000 0.000000 0.000000 1.883724 3.799161 48.422095 -4.670086 -1.996329 0.186233 -1.208867 3.646558 1.881958 0.000000 0.000000 0.000000 0.096056 2.852345 48.960717 -1.037651 -3.533246 0.340562 -17.376076 11.486120 10.817445 0.000000 0.000000 0.000000
-43.094196 68.299572 331.220795 -1.447419 -0.904278 -47.653073 -0.383499 0.308442 47.609160 -0.545270 -0.105971 -0.097901 2.021906 0.523461 0.128730 0.000000 0.000000 0.000000 -4.463948 0.197912 1.456856 27.618181 -4.169655 -2.856400 -15.346594 -5.426274 6.269483 -0.639892 0.442960 -4.151909 0.000000 0.000000 0.000000 0.000000 0.000000 0.000000 1.146331 -0.275399 0.006567 0.875714 0.798728 0.117954 -1.728264 -42.333962 31.615708 23.570757 28.231816 -38.508419 0.000000 0.000000 0.000000 0.000000 0.000000 0.000000 0.367624 10.854391 46.299963 -9.792792 -8.367157 0.659837 -1.454706 10.653888 5.322363 0.000000 0.000000 0.000000 0.401672 6.741549 48.387681 -4.353787 -3.948358 -0.651078 -15.648427 16.716666 13.487930 0.000000 0.000000 0.000000
-43.039270 67.522566 332.349388 -2.174649 -1.878577 -45.662064 -0.283153 0.300342 45.582995 -0.733145 0.064941 -0.124519 2.886406 1.409513 0.151747 0.000000 0.000000 0.000000 -7.151284 -0.907879 2.262453 35.930298 -0.981956 -4.296913 -11.265393 -12.527199 11.737346 4.696668 7.946595 -7.474680 0.000000 0.000000 0.000000 0.000000 0.000000 0.000000 0.228723 -1.088032 -0.228152 4.020510 10.114258 0.026738 -1.997397 -55.461051 40.612166 37.292751 31.702525 -53.547058 0.000000 0.000000 0.000000 0.000000 0.000000 0.000000 -0.660353 19.579323 43.078071 -16.542355 -16.836859 0.317411 -0.600017 18.839668 9.062468 0.000000 0.000000 0.000000 1.635078 10.555837 46.861771 -7.982989 -3.535997 -1.935474 -18.377743 26.495262 20.990192 0.000000 0.000000 0.000000
-42.967474 66.575638 333.398105 -3.035555 -2.737241 -42.437076 -0.111832 0.262407 42.302846 -0.801117 0.176042 -0.145269 2.767000 3.789726 -0.115495 0.000000 0.000000 0.000000 -11.716115 -2.365658 3.392838 43.186892 2.959754 -6.268772 -3.212988 -11.523326 17.782797 6.982380 12.855172 -11.664316 0.000000 0.000000 0.000000 0.000000 0.000000 0.000000 -1.284623 -2.124822 -0.525617 7.929667 23.367319 -0.730178 -8.355084 -63.499202 37.923363 45.891193 29.822319 -59.497759 0.000000 0.000000 0.000000 0.000000 0.000000 0.000000 0.308213 29.695318 38.085886 -26.014998 -26.484776 -1.994939 1.957740 27.834600 12.816254 0.000000 0.000000 0.000000 3.567056 13.915384 43.861620 -11.225744 -3.163789 -3.080821 -27.467909 41.581186 36.118535 0.000000 0.000000 0.000000
